<svg xmlns="http://www.w3.org/2000/svg" viewBox="0 0 500 443" width="100%" height="100%">
  <title>Karpenter Logo</title>
  <path fill="#3f51b5" d="M 237.705 0 C 314.663 0 377.049 62.3866 377.049 139.344 L 377.049 336.352 L 442.623 336.352 C 474.311 336.352 500 362.04 500 393.729 V 443 h -7.54607 c -18.2253 0 -33.095 -14.5928 -33.4375 -32.8148 V 401.961 L 459.013 401.554 C 458.796 388.161 447.871 377.37 434.426 377.37 H 106.557 C 47.7074 377.37 0 329.663 0 270.813 L -1.00612e-14 139.344 C -1.00612e-14 62.3866 62.3866 0 139.344 0 Z m -8.19672 41.0185 H 147.541 L 145.779 41.0328 C 87.7416 41.9738 40.9836 89.3144 40.9836 147.576 V 270.778 L 40.9924 271.862 C 41.5715 307.578 70.7041 336.352 106.557 336.352 H 270.492 c 36.2154 0 65.5738 -29.3584 65.5738 -65.5738 V 147.576 L 336.051 145.814 C 335.11 87.7765 287.77 41.0185 229.508 41.0185 Z M 147.869 106.648 C 157.213 106.648 164.59 114.278 164.59 123.876 v 49.9606 l 56.8033 -58.5744 C 228.77 108.371 238.852 107.879 245.984 114.524 V 114.77 C 252.869 121.169 252.377 131.751 244.754 138.643 l -42.0492 43.3156 l 48.9344 69.8956 C 257.541 260.468 255.82 271.296 247.951 276.465 C 239.344 281.387 229.508 278.68 223.607 270.066 l -44.0164 -64.4811 l -15 15.7511 v 40.3622 c 0 9.84445 -7.37705 17.2278 -16.7213 17.2278 C 138.525 278.926 131.148 271.543 131.148 261.698 V 123.876 c 0 -9.59833 7.37705 -17.2278 16.7213 -17.2278 Z"/>
</svg>
